<svg width="80" height="80" viewBox="0 0 80 80" fill="none" xmlns="http://www.w3.org/2000/svg">
<path fill-rule="evenodd" clip-rule="evenodd" d="M40 80C62.0914 80 80 62.0914 80 40C80 17.9086 62.0914 0 40 0C17.9086 0 0 17.9086 0 40C0 62.0914 17.9086 80 40 80Z" fill="#313A49"/>
<rect width="56" height="56" transform="translate(12 12)" fill="#313A49"/>
<path fill-rule="evenodd" clip-rule="evenodd" d="M27.8375 19H52.1625C53.1775 19 54 19.8225 54 20.8375V59.1625C54 60.1775 53.1775 61 52.1625 61H27.8375C26.8225 61 26 60.1775 26 59.1625V20.8375C26 19.8225 26.8225 19 27.8375 19ZM52.25 20.8375C52.25 20.785 52.215 20.75 52.1625 20.75H27.8375C27.785 20.75 27.75 20.785 27.75 20.8375V59.1625C27.75 59.215 27.785 59.25 27.8375 59.25H52.1625C52.215 59.25 52.25 59.215 52.25 59.1625V20.8375Z" fill="white"/>
<path d="M40 57.5C40.4725 57.5 40.875 57.115 40.875 56.625C40.875 56.135 40.4725 55.75 40 55.75C39.5275 55.75 39.125 56.135 39.125 56.625C39.125 57.115 39.5275 57.5 40 57.5Z" fill="white"/>
<rect x="26" y="52.25" width="28" height="1.75" fill="white"/>
<path fill-rule="evenodd" clip-rule="evenodd" d="M40 30.3575L48.75 35.6075L39.9825 40.84V38.25C39.6495 38.25 39.3072 38.2454 38.9747 38.2409C38.6607 38.2367 38.3555 38.2325 38.075 38.2325C37.725 38.2325 37.4275 38.2325 37.2 38.25C36.1325 38.3025 34.3475 38.8275 33.4025 39.335C32.5975 39.755 31.8275 40.2625 31.285 41.0325C31.2762 41.0325 31.2631 41.0282 31.25 41.0238C31.2368 41.0194 31.2237 41.015 31.215 41.015C31.2675 40.4725 31.32 39.93 31.4075 39.405C31.6 38.145 31.95 36.9375 32.58 35.835C33.455 34.33 34.68 33.315 36.43 33.07C36.8709 33.0088 37.3204 33.0076 37.7665 33.0063C37.9578 33.0058 38.1484 33.0053 38.3375 33H40V30.3575ZM37.69 36.5H38.25H40H41.75V37.76L45.3725 35.59L41.7675 33.4375V34.75H40.0175V34.7325H39.23C38.4774 34.7325 38.1231 34.7402 37.8834 34.7454C37.7608 34.748 37.6681 34.75 37.5675 34.75H37.515H37.4975C35.835 34.75 34.4875 35.7825 33.8925 37.2525C34.0533 37.2066 34.2108 37.1573 34.365 37.109C34.563 37.047 34.7555 36.9867 34.9425 36.9375C35.0042 36.9214 35.0788 36.9 35.1649 36.8752C35.64 36.7383 36.4672 36.5 37.445 36.5H37.69Z" fill="white"/>
</svg>
